<svg data-v-fde0c5aa="" xmlns="http://www.w3.org/2000/svg" viewBox="0 0 300 300" class="iconLeftSlogan"><!----><defs data-v-fde0c5aa=""><!----></defs><rect data-v-fde0c5aa="" fill="#5a7d7c" x="0" y="0" width="300px" height="300px" class="logo-background-square"></rect><defs data-v-fde0c5aa=""><!----></defs><g data-v-fde0c5aa="" id="7ec84217-37e6-4866-8478-31a5677d12d9" fill="#FFFFFF" transform="matrix(4.866678714752197,0,0,4.866678714752197,134.92634770023434,97.53822696770807)"><path d="M1.08 13.65L2.20 13.65L2.20 3.60L1.08 3.60ZM4.14 5.00C4.14 5.43 4.47 5.75 4.90 5.75C5.32 5.75 5.66 5.43 5.66 5.00C5.66 4.58 5.32 4.24 4.90 4.24C4.47 4.24 4.14 4.58 4.14 5.00ZM4.35 13.65L5.47 13.65L5.47 7.22L4.35 7.22ZM9.42 13.65L10.32 13.65L12.84 7.22L11.75 7.22L10.25 11.19C10.12 11.49 10.00 11.87 9.91 12.17L9.59 11.19L8.06 7.22L6.85 7.22ZM19.28 10.61L19.28 9.91C19.28 7.95 18.37 7.03 16.67 7.03C14.43 7.03 13.71 8.75 13.71 10.47C13.71 12.78 14.80 13.85 16.70 13.85C18.12 13.85 18.96 13.16 19.28 12.01L18.30 11.82C18.12 12.40 17.57 12.92 16.73 12.92C15.26 12.92 14.92 11.80 14.91 10.61ZM16.65 7.95C17.65 7.95 18.12 8.61 18.12 9.46L18.12 9.72L14.95 9.72C15.12 8.50 15.75 7.95 16.65 7.95ZM20.58 11.86C20.44 13.27 21.87 13.85 23.17 13.85C24.64 13.85 25.70 13.12 25.70 11.84C25.70 9.46 21.94 10.36 21.94 8.75C21.94 8.20 22.41 7.95 23.14 7.95C24.29 7.95 24.46 8.64 24.37 9.09L25.49 8.89C25.72 7.64 24.56 7.03 23.20 7.03C21.57 7.03 20.79 7.87 20.79 8.95C20.79 11.28 24.53 10.49 24.53 12.05C24.53 12.64 23.95 12.92 23.13 12.92C22.05 12.92 21.57 12.38 21.64 11.69Z"></path></g><defs data-v-fde0c5aa=""><!----></defs><g data-v-fde0c5aa="" id="62d60ba6-4029-4bc3-ac3f-e3c363bf0f51" stroke="none" fill="#cc7680" transform="matrix(1.5241671800613403,0,0,1.5241671800613403,7.382821774084135,73.79162957925374)"><path d="M66.2 26.2H37.8l8-8c.4-.4.4-1 0-1.4-.4-.4-1-.4-1.4 0l-9.6 9.6c-.4.4-.4 1 0 1.4l9.7 9.7c.2.2.5.3.7.3.3 0 .5-.1.7-.3.4-.4.4-1 0-1.4l-7.8-7.8h28.1c5.7 0 10.4 4.7 10.4 10.4s-4.7 10.4-10.4 10.4H33.8c-6.9 0-12.4 5.6-12.4 12.4 0 6.9 5.6 12.4 12.4 12.4h24.7l-7.9 7.9c-.4.4-.4 1 0 1.4.2.2.5.3.7.3.3 0 .5-.1.7-.3l9.7-9.7c.4-.4.4-1 0-1.4l-9.6-9.6c-.4-.4-1-.4-1.4 0-.4.4-.4 1 0 1.4l8 8H33.8c-5.7 0-10.4-4.7-10.4-10.4s4.7-10.4 10.4-10.4h32.4c6.9 0 12.4-5.6 12.4-12.4 0-6.9-5.5-12.5-12.4-12.5z"></path></g><defs data-v-fde0c5aa=""><!----></defs><g data-v-fde0c5aa="" id="bf2e6f84-c3e2-4239-a4fe-9b56d9fac04e" fill="#232c33" transform="matrix(0.31752389669418335,0,0,0.31752389669418335,140.00772299374685,174.27492929543132)"><path d="M5.11 10.57C2.86 10.57 1.60 8.93 1.60 6.85C1.60 4.76 2.86 3.12 5.11 3.12C6.64 3.12 7.64 3.85 8.12 4.98L9.23 4.98C8.64 3.29 7.13 2.10 5.03 2.10C2.24 2.10 0.55 4.21 0.55 6.85C0.55 9.48 2.24 11.59 5.03 11.59C7.13 11.59 8.64 10.40 9.23 8.71L8.12 8.71C7.64 9.84 6.64 10.57 5.11 10.57ZM24.23 2.21L24.23 6.33L18.84 6.33L18.84 2.21L17.79 2.21L17.79 11.48L18.84 11.48L18.84 7.35L24.23 7.35L24.23 11.48L25.28 11.48L25.28 2.21ZM38.71 2.21L37.39 2.21L33.46 11.48L34.62 11.48L35.76 8.79L40.35 8.79L41.48 11.48L42.64 11.48ZM36.16 7.83L38.05 3.30L39.94 7.83ZM57.76 2.21L57.76 10.01L52.04 2.21L50.82 2.21L50.82 11.48L51.87 11.48L51.87 3.65L57.60 11.48L58.81 11.48L58.81 2.21ZM72.06 2.10C69.27 2.10 67.49 4.21 67.49 6.85C67.49 9.48 69.20 11.59 72.03 11.59C73.71 11.59 74.80 10.74 75.39 9.84L75.39 11.48L76.36 11.48L76.36 6.55L72.00 6.55L72.00 7.50L75.39 7.50C75.39 9.44 73.79 10.57 72.11 10.57C69.86 10.57 68.54 8.93 68.54 6.85C68.54 4.76 69.89 3.12 72.14 3.12C73.56 3.12 74.56 3.74 75.12 4.73L76.27 4.73C75.59 3.18 74.05 2.10 72.06 2.10ZM92.02 3.22L92.02 2.21L85.20 2.21L85.20 11.48L92.02 11.48L92.02 10.47L86.25 10.47L86.25 7.35L91.41 7.35L91.41 6.33L86.25 6.33L86.25 3.22ZM114.49 7.81L118.37 2.21L117.10 2.21L113.96 6.72L110.82 2.21L109.55 2.21L113.44 7.81L113.44 11.48L114.49 11.48ZM130.12 2.10C127.30 2.10 125.41 4.21 125.41 6.85C125.41 9.48 127.30 11.59 130.12 11.59C132.93 11.59 134.82 9.48 134.82 6.85C134.82 4.21 132.93 2.10 130.12 2.10ZM130.12 10.57C127.86 10.57 126.46 8.93 126.46 6.85C126.46 4.76 127.86 3.12 130.12 3.12C132.37 3.12 133.77 4.76 133.77 6.85C133.77 8.93 132.37 10.57 130.12 10.57ZM150.22 2.21L150.22 7.52C150.22 9.67 148.79 10.57 147.32 10.57C145.85 10.57 144.44 9.67 144.44 7.52L144.44 2.21L143.39 2.21L143.39 7.49C143.39 9.95 145.01 11.59 147.32 11.59C149.65 11.59 151.27 9.94 151.27 7.49L151.27 2.21ZM161.48 7.92L164.70 7.92L166.94 11.48L168.18 11.48L165.75 7.74C166.78 7.50 167.99 6.90 167.99 5.11C167.99 3.35 166.77 2.21 164.86 2.21L160.43 2.21L160.43 11.48L161.48 11.48ZM161.48 3.21L164.74 3.21C166.05 3.21 166.94 3.93 166.94 5.11C166.94 6.55 165.68 6.93 164.68 6.93L161.48 6.93ZM186.77 2.21L186.77 11.48L192.88 11.48L192.88 10.47L187.82 10.47L187.82 2.21ZM202.29 2.21L201.24 2.21L201.24 11.48L202.29 11.48ZM218.25 3.22L218.25 2.21L211.55 2.21L211.55 11.48L212.60 11.48L212.60 7.46L217.63 7.46L217.63 6.44L212.60 6.44L212.60 3.22ZM233.53 3.22L233.53 2.21L226.72 2.21L226.72 11.48L233.53 11.48L233.53 10.47L227.77 10.47L227.77 7.35L232.92 7.35L232.92 6.33L227.77 6.33L227.77 3.22ZM241.25 13.34L242.20 13.34L243.43 10.36L242.06 10.36ZM263.34 7.92L266.56 7.92L268.80 11.48L270.05 11.48L267.61 7.74C268.65 7.50 269.85 6.90 269.85 5.11C269.85 3.35 268.63 2.21 266.73 2.21L262.29 2.21L262.29 11.48L263.34 11.48ZM263.34 3.21L266.60 3.21C267.92 3.21 268.80 3.93 268.80 5.11C268.80 6.55 267.54 6.93 266.55 6.93L263.34 6.93ZM285.47 3.22L285.47 2.21L278.66 2.21L278.66 11.48L285.47 11.48L285.47 10.47L279.71 10.47L279.71 7.35L284.86 7.35L284.86 6.33L279.71 6.33L279.71 3.22ZM301.11 2.21L301.11 10.01L295.39 2.21L294.17 2.21L294.17 11.48L295.22 11.48L295.22 3.65L300.94 11.48L302.16 11.48L302.16 2.21ZM318.01 2.21L310.49 2.21L310.49 3.22L313.73 3.22L313.73 11.48L314.78 11.48L314.78 3.22L318.01 3.22ZM340.44 2.10C337.62 2.10 335.73 4.21 335.73 6.85C335.73 9.48 337.62 11.59 340.44 11.59C343.25 11.59 345.14 9.48 345.14 6.85C345.14 4.21 343.25 2.10 340.44 2.10ZM340.44 10.57C338.18 10.57 336.78 8.93 336.78 6.85C336.78 4.76 338.18 3.12 340.44 3.12C342.69 3.12 344.09 4.76 344.09 6.85C344.09 8.93 342.69 10.57 340.44 10.57ZM360.77 2.21L360.77 10.01L355.04 2.21L353.82 2.21L353.82 11.48L354.87 11.48L354.87 3.65L360.60 11.48L361.82 11.48L361.82 2.21ZM377.90 3.22L377.90 2.21L371.08 2.21L371.08 11.48L377.90 11.48L377.90 10.47L372.13 10.47L372.13 7.35L377.29 7.35L377.29 6.33L372.13 6.33L372.13 3.22Z"></path></g></svg>