<svg data-v-fde0c5aa="" xmlns="http://www.w3.org/2000/svg" viewBox="0 0 300 300" class="icon"><!----><defs data-v-fde0c5aa=""><!----></defs><rect data-v-fde0c5aa="" fill="#5a7d7c" x="0" y="0" width="300px" height="300px" class="logo-background-square"></rect><!----><defs data-v-fde0c5aa=""><!----></defs><g data-v-fde0c5aa="" id="19435b3d-8287-4fc2-8212-341460d1213a" fill="#cc7680" stroke="none" transform="matrix(3.2835817337036133,0,0,3.2835817337036133,-14.179079519348178,-14.17910457108858)"><path d="M66.2 26.2H37.8l8-8c.4-.4.4-1 0-1.4-.4-.4-1-.4-1.4 0l-9.6 9.6c-.4.4-.4 1 0 1.4l9.7 9.7c.2.2.5.3.7.3.3 0 .5-.1.7-.3.4-.4.4-1 0-1.4l-7.8-7.8h28.1c5.7 0 10.4 4.7 10.4 10.4s-4.7 10.4-10.4 10.4H33.8c-6.9 0-12.4 5.6-12.4 12.4 0 6.9 5.6 12.4 12.4 12.4h24.7l-7.9 7.9c-.4.4-.4 1 0 1.4.2.2.5.3.7.3.3 0 .5-.1.7-.3l9.7-9.7c.4-.4.4-1 0-1.4l-9.6-9.6c-.4-.4-1-.4-1.4 0-.4.4-.4 1 0 1.4l8 8H33.8c-5.7 0-10.4-4.7-10.4-10.4s4.7-10.4 10.4-10.4h32.4c6.9 0 12.4-5.6 12.4-12.4 0-6.9-5.5-12.5-12.4-12.5z"></path></g><!----></svg>